<?xml version="1.0" encoding="UTF-8" standalone="no"?>
<!-- Created with Inkscape (http://www.inkscape.org/) -->

<svg
    xmlns:dc="http://purl.org/dc/elements/1.1/"
    xmlns:cc="http://creativecommons.org/ns#"
    xmlns:rdf="http://www.w3.org/1999/02/22-rdf-syntax-ns#"
    xmlns:svg="http://www.w3.org/2000/svg"
    xmlns="http://www.w3.org/2000/svg"
    xmlns:sodipodi="http://sodipodi.sourceforge.net/DTD/sodipodi-0.dtd"
    xmlns:inkscape="http://www.inkscape.org/namespaces/inkscape"
    width="1080"
    height="1080.0001"
    viewBox="0 0 1080.0001 1080.0001"
    id="svg3465"
    version="1.1"
    inkscape:version="0.91 r"
    sodipodi:docname="testify_dark_1080x1080.svg">
    <defs
        id="defs3467" />
    <sodipodi:namedview
        id="base"
        pagecolor="#ffffff"
        bordercolor="#666666"
        borderopacity="1.0"
        inkscape:pageopacity="0.0"
        inkscape:pageshadow="2"
        inkscape:zoom="1"
        inkscape:cx="149.03833"
        inkscape:cy="619.203"
        inkscape:document-units="px"
        inkscape:current-layer="layer1"
        showgrid="true"
        units="px"
        objecttolerance="10000"
        inkscape:window-width="2560"
        inkscape:window-height="1548"
        inkscape:window-x="0"
        inkscape:window-y="0"
        inkscape:window-maximized="1"
        guidetolerance="10000"
        fit-margin-top="32"
        fit-margin-left="32"
        fit-margin-right="32"
        fit-margin-bottom="32">
        <inkscape:grid
            type="xygrid"
            id="grid3345"
            originx="-402.00005"
            originy="-235.78228" />
    </sodipodi:namedview>
    <metadata
        id="metadata3470">
        <rdf:RDF>
            <cc:Work
                rdf:about="">
                <dc:format>image/svg+xml</dc:format>
                <dc:type
                    rdf:resource="http://purl.org/dc/dcmitype/StillImage" />
                <dc:title></dc:title>
            </cc:Work>
        </rdf:RDF>
    </metadata>
    <g
        inkscape:label="Layer 1"
        inkscape:groupmode="layer"
        id="layer1"
        transform="translate(-127.00006,165.63785)">
        <text
            xml:space="preserve"
            style="font-style:normal;font-weight:normal;font-size:60.90839005px;line-height:125%;font-family:sans-serif;letter-spacing:0px;word-spacing:0px;fill:#3c4e5c;fill-opacity:1;stroke:none;stroke-width:1px;stroke-linecap:butt;stroke-linejoin:miter;stroke-opacity:1"
            x="192.51927"
            y="750.55609"
            id="text3495"
            sodipodi:linespacing="125%"
            clip-path="none"
            transform="scale(0.9679917,1.0330667)"><tspan
            sodipodi:role="line"
            id="tspan3497"
            x="192.51927"
            y="750.55609"
            style="font-style:normal;font-variant:normal;font-weight:600;font-stretch:normal;font-size:319.76904297px;line-height:125%;font-family:Raleway;-inkscape-font-specification:'Raleway, Semi-Bold';text-align:start;writing-mode:lr-tb;text-anchor:start;fill:#3c4e5c;fill-opacity:1">Testify</tspan></text>
        <path
            style="fill:#3c4e5c"
            d="m 595.48668,465.9916 c -18.98429,-2.03212 -37.41944,-10.11926 -51.8464,-22.74424 -5.31141,-4.64802 -14.28043,-15.29139 -74.66974,-88.60921 -37.7483,-45.82969 -70.06122,-85.33002 -71.80656,-87.77859 -10.96834,-15.38774 -15.69608,-33.22806 -13.72893,-51.80653 1.52423,-14.3951 5.70542,-25.34438 13.96938,-36.58146 13.92832,-18.93916 35.25503,-31.9593 58.04064,-35.43437 20.42086,-3.11441 42.34859,-0.4307 56.49127,6.91387 1.71809,0.89223 3.42307,1.62225 3.7888,1.62225 0.47552,0 0.72332,-20.92302 0.86997,-73.472897 0.20274,-72.6484016 0.21962,-73.5307586 1.50435,-78.62949358 3.91166,-15.52416742 10.52045,-26.60569842 22.42865,-37.60795842 11.10562,-10.26077 21.91157,-16.26387 36.05224,-20.02812 10.06794,-2.68012 23.08342,-3.6595 33.01569,-2.48431 2.42947,0.28745 4.76233,0.39923 5.18432,0.24843 0.42192,-0.15081 1.64962,-1.73537 2.7282,-3.52127 5.40382,-8.94747 15.7217,-18.90021 26.1335,-25.20865 13.63384,-8.26066 26.27645,-11.900701 43.26535,-12.456871 31.64777,-1.03605 60.52427,14.081571 76.10272,39.841891 1.00217,1.65721 1.25333,1.76398 3.35446,1.42609 9.23748,-1.48543 23.78317,-0.7874 34.00552,1.63191 20.25469,4.79361 39.40086,18.20925 50.75285,35.562224 7.05449,10.783637 11.13462,25.0174054 11.13462,38.842552 0,2.303726 0.2059,4.194961 0.45756,4.202714 16.00228,0.493693 22.3976,1.256188 30.78973,3.670995 11.77583,3.388498 22.5205,9.337058 32.28487,17.873984 13.30775,11.634843 20.80797,24.048869 24.06426,39.830353 1.09174,5.29184 1.14616,9.81549 1.14616,95.278657 0,83.51478 -0.0759,90.15701 -1.09205,95.99512 -2.82005,16.1987 -29.21682,142.0051 -30.60516,145.86378 -3.63826,10.11212 -9.56338,18.77373 -18.31583,26.77432 -11.27263,10.30454 -23.54993,16.55768 -39.03441,19.88112 l -5.48921,1.17819 -128.38691,0.0877 C 657.46385,466.40218 597.79832,466.239 595.48668,465.9916 Z M 856.4635,424.47649 c 9.35535,-3.23649 16.97402,-9.90943 20.42877,-17.89289 1.55919,-3.60345 28.34622,-133.0065 29.28623,-141.47632 0.46354,-4.17768 0.61226,-32.25838 0.48376,-91.31154 l -0.18582,-85.278557 -1.66434,-4.15416 c -4.09714,-10.22588 -13.91766,-18.991895 -24.97211,-22.290338 -5.91361,-1.764562 -17.811,-1.913284 -23.07157,-0.288408 -12.56695,3.881712 -22.21952,12.541526 -26.39175,23.677326 -1.34415,3.58794 -1.35484,3.90917 -1.66107,50.000447 l -0.30814,46.38934 -5.18428,0 -5.18435,0 -0.3049,-87.223037 -0.30498,-87.2230156 -1.64384,-4.100498 c -4.04726,-10.095296 -13.43955,-18.6400424 -24.29124,-22.0991484 -5.51103,-1.756712 -13.71464,-2.307993 -19.85387,-1.334157 -13.88102,2.201852 -25.6992,11.8880314 -30.54399,25.0337804 -1.07036,2.904387 -1.1412,7.3581306 -1.43104,90.0008186 l -0.30499,86.945257 -5.18422,0 -5.18431,0 -0.30494,-107.223217 -0.30493,-107.223194 -1.71638,-4.423298 c -4.27383,-11.01445 -14.26348,-19.75869 -26.15777,-22.89679 -5.8742,-1.54977 -14.73566,-1.74573 -20.33343,-0.44961 -12.573,2.91122 -23.91381,12.65033 -28.13161,24.15855 -1.06682,2.910744 -1.13439,8.151053 -1.42484,110.556562 l -0.30499,107.500997 -5.18425,0 -5.18429,0 -0.30495,-86.945257 -0.30493,-86.9452396 -1.3562,-3.61115 c -4.11423,-10.955279 -14.237,-20.0693634 -26.08994,-23.4902414 -5.75011,-1.659524 -17.78597,-1.757967 -22.87178,-0.187073 -13.6057,4.20255 -23.47146,13.6382114 -26.85331,25.6826154 -1.17959,4.2012596 -1.2027,6.6959766 -1.2027,129.7514456 0,100.0164 -0.15465,125.46308 -0.76243,125.4444 -0.41933,-0.013 -12.97588,-14.91005 -27.90353,-33.10478 -18.47038,-22.5128 -28.40028,-34.14155 -31.08244,-36.40005 -7.32564,-6.16859 -18.28461,-9.91692 -28.99411,-9.91692 -12.00477,0 -23.21923,4.22956 -31.70223,11.95665 -9.14543,8.33036 -13.70604,19.18592 -12.94011,30.80086 0.40897,6.20171 1.56937,10.50095 4.17809,15.47993 2.18155,4.16364 138.75568,170.39008 143.5856,174.76015 5.63669,5.10007 12.42755,8.40618 20.69118,10.07343 2.98759,0.60275 26.89665,0.72033 130.21665,0.64033 l 126.5572,-0.098 3.65942,-1.26602 z"
            id="path3432"
            inkscape:connector-curvature="0"
            clip-path="none" />
    </g>
</svg>
