<?xml version="1.0" encoding="UTF-8" standalone="no"?>
<!-- Created with Inkscape (http://www.inkscape.org/) -->

<svg
    xmlns:dc="http://purl.org/dc/elements/1.1/"
    xmlns:cc="http://creativecommons.org/ns#"
    xmlns:rdf="http://www.w3.org/1999/02/22-rdf-syntax-ns#"
    xmlns:svg="http://www.w3.org/2000/svg"
    xmlns="http://www.w3.org/2000/svg"
    xmlns:sodipodi="http://sodipodi.sourceforge.net/DTD/sodipodi-0.dtd"
    xmlns:inkscape="http://www.inkscape.org/namespaces/inkscape"
    width="3240"
    height="1080"
    viewBox="0 0 3240.0002 1080"
    id="svg3465"
    version="1.1"
    inkscape:version="0.91 r"
    sodipodi:docname="testify_dark_long.svg">
    <defs
        id="defs3467" />
    <sodipodi:namedview
        id="base"
        pagecolor="#ffffff"
        bordercolor="#666666"
        borderopacity="1.0"
        inkscape:pageopacity="0.0"
        inkscape:pageshadow="2"
        inkscape:zoom="0.35"
        inkscape:cx="2268.5529"
        inkscape:cy="985.27364"
        inkscape:document-units="px"
        inkscape:current-layer="layer1"
        showgrid="true"
        units="px"
        objecttolerance="10000"
        inkscape:window-width="2560"
        inkscape:window-height="1548"
        inkscape:window-x="0"
        inkscape:window-y="0"
        inkscape:window-maximized="1"
        guidetolerance="10000">
        <inkscape:grid
            type="xygrid"
            id="grid3345" />
    </sodipodi:namedview>
    <metadata
        id="metadata3470">
        <rdf:RDF>
            <cc:Work
                rdf:about="">
                <dc:format>image/svg+xml</dc:format>
                <dc:type
                    rdf:resource="http://purl.org/dc/dcmitype/StillImage" />
                <dc:title></dc:title>
            </cc:Work>
        </rdf:RDF>
    </metadata>
    <g
        inkscape:label="Layer 1"
        inkscape:groupmode="layer"
        id="layer1"
        transform="translate(0,27.637748)">
        <text
            xml:space="preserve"
            style="font-style:normal;font-weight:normal;font-size:116.6100235px;line-height:125%;font-family:sans-serif;letter-spacing:0px;word-spacing:0px;fill:#3c4e5c;fill-opacity:1;stroke:none;stroke-width:1px;stroke-linecap:butt;stroke-linejoin:miter;stroke-opacity:1"
            x="1219.9301"
            y="817.3924"
            id="text3495"
            sodipodi:linespacing="125%"><tspan
            sodipodi:role="line"
            id="tspan3497"
            x="1219.9301"
            y="817.3924"
            style="font-style:normal;font-variant:normal;font-weight:600;font-stretch:normal;font-size:612.20275879px;line-height:125%;font-family:Raleway;-inkscape-font-specification:'Raleway, Semi-Bold';text-align:start;writing-mode:lr-tb;text-anchor:start;fill:#3c4e5c;fill-opacity:1">Testify</tspan></text>
        <path
            style="fill:#3c4e5c"
            d="m 460.19738,955.78281 c -29.67966,-3.177 -58.50082,-15.8203 -81.05567,-35.55792 -8.30374,-7.26662 -22.32575,-23.90626 -116.73718,-138.5299 C 203.38954,710.04578 152.87216,648.2917 150.14354,644.46369 132.99585,620.4068 125.60459,592.51558 128.68002,563.47036 c 2.38289,-22.50499 8.9197,-39.62288 21.83943,-57.19069 21.77526,-29.60911 55.11701,-49.96457 90.7396,-55.39741 31.9256,-4.86901 66.20697,-0.67337 88.31737,10.809 2.68603,1.3949 5.35155,2.53619 5.92329,2.53619 0.74343,0 1.13083,-32.71061 1.36011,-114.86606 0.31697,-113.57707 0.34338,-114.95654 2.35189,-122.9278 6.11541,-24.27018 16.44748,-41.59481 35.06449,-58.79553 17.36232,-16.04151 34.25616,-25.42659 56.36339,-31.31159 15.74002,-4.19004 36.08819,-5.72116 51.61612,-3.88391 3.79816,0.44939 7.44532,0.62417 8.10503,0.3884 0.65962,-0.23578 2.579,-2.71307 4.26521,-5.5051 8.44822,-13.98827 24.579,-29.548194 40.8566,-39.410704 21.3149,-12.91458 41.0801,-18.60533 67.64022,-19.47484 49.47751,-1.61974 94.62246,22.01488 118.97752,62.288044 1.56678,2.59084 1.95943,2.75776 5.24432,2.22953 14.44169,-2.32232 37.18215,-1.23102 53.16357,2.55127 31.66579,7.49425 61.59847,28.46799 79.34589,55.5973 11.02877,16.85892 17.40786,39.11171 17.40786,60.72568 0,3.6016 0.3219,6.5583 0.71512,6.57044 25.01792,0.77183 35.01605,1.9639 48.13607,5.73917 18.41019,5.29749 35.20804,14.59735 50.47351,27.94381 20.80525,18.1897 32.53067,37.59754 37.62147,62.27001 1.7069,8.27314 1.792,15.34533 1.792,148.95676 0,130.56534 -0.1181,140.9497 -1.707,150.07686 -4.4091,25.32476 -45.67732,222.00796 -47.84776,228.04057 -5.68784,15.80906 -14.95127,29.35047 -28.63439,41.85845 -17.62374,16.1099 -36.81765,25.8859 -61.02571,31.0817 l -8.58187,1.842 -200.71751,0.1371 c -110.39458,0.076 -203.67447,-0.1794 -207.28848,-0.5662 z m 408.00599,-64.90394 c 14.62604,-5.05985 26.53687,-15.4922 31.93785,-27.97339 2.43772,-5.63355 44.31619,-207.93972 45.78558,-221.18129 0.72479,-6.53129 0.95736,-50.43209 0.75625,-142.75463 l -0.29035,-133.32281 -2.60208,-6.49454 c -6.40523,-15.98694 -21.75863,-29.69152 -39.0408,-34.84827 -9.24534,-2.75868 -27.84545,-2.99119 -36.06959,-0.45089 -19.647,6.06858 -34.73776,19.60718 -41.26036,37.01666 -2.10158,5.60932 -2.11827,6.11152 -2.59697,78.16972 l -0.48176,72.52414 -8.10501,0 -8.10501,0 -0.47669,-136.36273 -0.47677,-136.36275 -2.57005,-6.41064 c -6.32735,-15.78278 -21.01108,-29.14149 -37.97642,-34.54937 -8.61584,-2.74641 -21.44119,-3.60826 -31.03915,-2.08581 -21.70129,3.44234 -40.17763,18.58552 -47.75187,39.13733 -1.67338,4.54065 -1.78413,11.50356 -2.23725,140.70551 l -0.47682,135.92846 -8.10493,0 -8.10504,0 -0.47673,-167.63063 -0.47673,-167.63063 -2.68331,-6.9153 c -6.68165,-17.21977 -22.29928,-30.89035 -40.89459,-35.79636 -9.18359,-2.42291 -23.03744,-2.72924 -31.7889,-0.70291 -19.65634,4.5513 -37.38636,19.77727 -43.9804,37.76898 -1.66785,4.5506 -1.77345,12.74319 -2.22756,172.84195 l -0.47682,168.0649 -8.10495,0 -8.10504,0 -0.47672,-135.92846 -0.47672,-135.92848 -2.12027,-5.64559 c -6.43211,-17.12729 -22.25785,-31.37607 -40.78852,-36.72419 -8.98959,-2.59448 -27.80622,-2.74838 -35.75729,-0.29246 -21.27087,6.57018 -36.69484,21.32171 -41.98192,40.15169 -1.84416,6.56816 -1.88032,10.46836 -1.88032,202.85084 0,156.36366 -0.24175,196.14649 -1.19195,196.11728 -0.65555,-0.0202 -20.28622,-23.31007 -43.62383,-51.75535 -28.87621,-35.19606 -44.40044,-53.37623 -48.59367,-56.90711 -11.45277,-9.64388 -28.58582,-15.5039 -45.32884,-15.5039 -18.768,0 -36.30048,6.61241 -49.56268,18.69276 -14.29775,13.02356 -21.42772,29.99491 -20.23026,48.15347 0.63937,9.69562 2.45351,16.41698 6.53192,24.20101 3.41058,6.50937 216.92792,266.38447 224.47894,273.21659 8.8123,7.97335 19.42897,13.14203 32.34817,15.74857 4.67077,0.94235 42.04972,1.12616 203.5782,1.00107 l 197.85698,-0.15318 5.72105,-1.97926 z"
            id="path3432"
            inkscape:connector-curvature="0" />
    </g>
</svg>
